<?xml version="1.0" encoding="UTF-8"?>
<svg version="1.1" xmlns="http://www.w3.org/2000/svg" width="256" height="256">
<path d="M0 0 C0.66 0 1.32 0 2 0 C3.36254883 1.71118164 3.36254883 1.71118164 4.95703125 4.16015625 C5.56506592 5.08449463 6.17310059 6.00883301 6.79956055 6.96118164 C7.46383057 7.9846167 8.12810059 9.00805176 8.8125 10.0625 C10.25134749 12.25084146 11.69147646 14.43830064 13.1328125 16.625 C13.51569931 17.2073793 13.89858612 17.78975861 14.29307556 18.38978577 C18.73391551 25.13632989 23.26145149 31.82389819 27.79476929 38.5085144 C29.16565335 40.53028078 30.53471406 42.55327236 31.90356445 44.57641602 C32.762418 45.84399039 33.6213811 47.11149053 34.48046875 48.37890625 C35.05467056 49.22769348 35.05467056 49.22769348 35.64047241 50.09362793 C37.63631835 53.03338365 39.67894025 55.92598636 41.7824707 58.78881836 C44 62 44 62 44 64 C44.55147705 64.09683578 45.1029541 64.19367157 45.67114258 64.29344177 C53.48034711 65.75252739 61.05967601 67.89961214 68.6875 70.09765625 C70.080809 70.49625657 71.47420249 70.89456168 72.86767578 71.29258728 C75.76617275 72.12139485 78.66389699 72.95283232 81.56103516 73.78637695 C85.27662149 74.85530601 88.99370465 75.91891547 92.71131897 76.98076725 C95.57872939 77.80014368 98.44554612 78.62158031 101.31216431 79.44372368 C102.68358786 79.8369225 104.05514895 80.22964195 105.42684937 80.62187386 C107.33461756 81.16787709 109.24154911 81.71680111 111.1484375 82.26586914 C112.23302246 82.57738419 113.31760742 82.88889923 114.43505859 83.20985413 C117 84 117 84 119 85 C119 85.66 119 86.32 119 87 C117.28881836 88.36254883 117.28881836 88.36254883 114.83984375 89.95703125 C113.91550537 90.56506592 112.99116699 91.17310059 112.03881836 91.79956055 C111.0153833 92.46383057 109.99194824 93.12810059 108.9375 93.8125 C106.74915854 95.25134749 104.56169936 96.69147646 102.375 98.1328125 C101.7926207 98.51569931 101.21024139 98.89858612 100.61021423 99.29307556 C93.86367011 103.73391551 87.17610181 108.26145149 80.4914856 112.79476929 C78.46971922 114.16565335 76.44672764 115.53471406 74.42358398 116.90356445 C73.15600961 117.762418 71.88850947 118.6213811 70.62109375 119.48046875 C69.77230652 120.05467056 69.77230652 120.05467056 68.90637207 120.64047241 C65.96661635 122.63631835 63.07401364 124.67894025 60.21118164 126.7824707 C57 129 57 129 55 129 C54.85474632 129.82721558 54.85474632 129.82721558 54.70655823 130.67114258 C53.24747261 138.48034711 51.10038786 146.05967601 48.90234375 153.6875 C48.50374343 155.080809 48.10543832 156.47420249 47.70741272 157.86767578 C46.87860515 160.76617275 46.04716768 163.66389699 45.21362305 166.56103516 C44.14469399 170.27662149 43.08108453 173.99370465 42.01923275 177.71131897 C41.19985632 180.57872939 40.37841969 183.44554612 39.55627632 186.31216431 C39.1630775 187.68358786 38.77035805 189.05514895 38.37812614 190.42684937 C37.83212291 192.33461756 37.28319889 194.24154911 36.73413086 196.1484375 C36.42261581 197.23302246 36.11110077 198.31760742 35.79014587 199.43505859 C35 202 35 202 34 204 C33.34 204 32.68 204 32 204 C30.63745117 202.28881836 30.63745117 202.28881836 29.04296875 199.83984375 C28.43493408 198.91550537 27.82689941 197.99116699 27.20043945 197.03881836 C26.53616943 196.0153833 25.87189941 194.99194824 25.1875 193.9375 C23.74865251 191.74915854 22.30852354 189.56169936 20.8671875 187.375 C20.48430069 186.7926207 20.10141388 186.21024139 19.70692444 185.61021423 C15.26608449 178.86367011 10.73854851 172.17610181 6.20523071 165.4914856 C4.83434665 163.46971922 3.46528594 161.44672764 2.09643555 159.42358398 C1.237582 158.15600961 0.3786189 156.88850947 -0.48046875 155.62109375 C-1.05467056 154.77230652 -1.05467056 154.77230652 -1.64047241 153.90637207 C-3.63631835 150.96661635 -5.67894025 148.07401364 -7.7824707 145.21118164 C-10 142 -10 142 -10 140 C-10.55147705 139.90316422 -11.1029541 139.80632843 -11.67114258 139.70655823 C-19.48034711 138.24747261 -27.05967601 136.10038786 -34.6875 133.90234375 C-36.080809 133.50374343 -37.47420249 133.10543832 -38.86767578 132.70741272 C-41.76617275 131.87860515 -44.66389699 131.04716768 -47.56103516 130.21362305 C-51.27662149 129.14469399 -54.99370465 128.08108453 -58.71131897 127.01923275 C-61.57872939 126.19985632 -64.44554612 125.37841969 -67.31216431 124.55627632 C-68.68358786 124.1630775 -70.05514895 123.77035805 -71.42684937 123.37812614 C-73.33461756 122.83212291 -75.24154911 122.28319889 -77.1484375 121.73413086 C-78.77531494 121.26685829 -78.77531494 121.26685829 -80.43505859 120.79014587 C-83 120 -83 120 -85 119 C-85 118.34 -85 117.68 -85 117 C-83.28881836 115.63745117 -83.28881836 115.63745117 -80.83984375 114.04296875 C-79.91550537 113.43493408 -78.99116699 112.82689941 -78.03881836 112.20043945 C-77.0153833 111.53616943 -75.99194824 110.87189941 -74.9375 110.1875 C-72.74915854 108.74865251 -70.56169936 107.30852354 -68.375 105.8671875 C-67.7926207 105.48430069 -67.21024139 105.10141388 -66.61021423 104.70692444 C-59.86367011 100.26608449 -53.17610181 95.73854851 -46.4914856 91.20523071 C-44.46971922 89.83434665 -42.44672764 88.46528594 -40.42358398 87.09643555 C-39.15600961 86.237582 -37.88850947 85.3786189 -36.62109375 84.51953125 C-35.77230652 83.94532944 -35.77230652 83.94532944 -34.90637207 83.35952759 C-31.96661635 81.36368165 -29.07401364 79.32105975 -26.21118164 77.2175293 C-23 75 -23 75 -21 75 C-20.90316422 74.44852295 -20.80632843 73.8970459 -20.70655823 73.32885742 C-19.24747261 65.51965289 -17.10038786 57.94032399 -14.90234375 50.3125 C-14.50374343 48.919191 -14.10543832 47.52579751 -13.70741272 46.13232422 C-12.87860515 43.23382725 -12.04716768 40.33610301 -11.21362305 37.43896484 C-10.14469399 33.72337851 -9.08108453 30.00629535 -8.01923275 26.28868103 C-7.19985632 23.42127061 -6.37841969 20.55445388 -5.55627632 17.68783569 C-5.1630775 16.31641214 -4.77035805 14.94485105 -4.37812614 13.57315063 C-3.83212291 11.66538244 -3.28319889 9.75845089 -2.73413086 7.8515625 C-2.26685829 6.22468506 -2.26685829 6.22468506 -1.79014587 4.56494141 C-1 2 -1 2 0 0 Z " fill="#0078FA" transform="translate(111,26)"/>
<path d="M0 0 C0.66 0 1.32 0 2 0 C2.66 1.32 3.32 2.64 4 4 C2.02 4.99 0.04 5.98 -2 7 C-1.34 4.69 -0.68 2.38 0 0 Z " fill="#0053AD" transform="translate(111,26)"/>
</svg>
